<?xml version="1.0" encoding="UTF-8"?>
<svg width="319px" height="108px" viewBox="0 0 319 108" version="1.1" xmlns="http://www.w3.org/2000/svg" xmlns:xlink="http://www.w3.org/1999/xlink">
    <!-- Generator: Sketch 43.2 (39069) - http://www.bohemiancoding.com/sketch -->
    <title>logo-big</title>
    <desc>Created with Sketch.</desc>
    <defs></defs>
    <g id="Main" stroke="none" stroke-width="1" fill="none" fill-rule="evenodd">
        <g id="Login" transform="translate(-353.000000, -37.000000)">
            <g id="Logo" transform="translate(353.000000, 32.000000)">
                <path d="M12.12,81.008 L17.4,81.008 L17.4,85.76 L17.688,85.856 C18.4240037,86.1760016 19.2319956,86.439999 20.112,86.648 C20.9920044,86.856001 21.927995,86.96 22.92,86.96 C24.712009,86.96 26.103995,86.6000036 27.096,85.88 C28.088005,85.1599964 28.584,84.1920061 28.584,82.976 C28.584,81.8879946 28.1760041,81.0080034 27.36,80.336 C26.5439959,79.6639966 25.536006,79.0720026 24.336,78.56 C23.135994,78.0479974 21.8240071,77.5360026 20.4,77.024 C18.9759929,76.5119974 17.664006,75.8640039 16.464,75.08 C15.263994,74.2959961 14.2560041,73.3120059 13.44,72.128 C12.6239959,70.9439941 12.216,69.4080094 12.216,67.52 C12.216,66.0799928 12.4959972,64.760006 13.056,63.56 C13.6160028,62.359994 14.399995,61.3280043 15.408,60.464 C16.416005,59.5999957 17.623993,58.9280024 19.032,58.448 C20.440007,57.9679976 22.0079914,57.728 23.736,57.728 C25.6880098,57.728 27.6079906,57.9039982 29.496,58.256 C31.3840094,58.6080018 32.8879944,59.087997 34.008,59.696 L34.008,69.44 L28.728,69.44 L28.728,64.112 C28.6319995,64.112 28.5360005,64.0960002 28.44,64.064 C27.7359965,63.871999 26.9760041,63.7200006 26.16,63.608 C25.3439959,63.4959994 24.536004,63.44 23.736,63.44 C22.1999923,63.44 20.9920044,63.743997 20.112,64.352 C19.2319956,64.960003 18.792,65.7759949 18.792,66.8 C18.792,67.8560053 19.1999959,68.7199966 20.016,69.392 C20.8320041,70.0640034 21.839994,70.6719973 23.04,71.216 C24.240006,71.7600027 25.5519929,72.3039973 26.976,72.848 C28.4000071,73.3920027 29.711994,74.0559961 30.912,74.84 C32.112006,75.6240039 33.1199959,76.6079941 33.936,77.792 C34.7520041,78.9760059 35.16,80.463991 35.16,82.256 C35.16,83.9840086 34.8400032,85.4959935 34.2,86.792 C33.5599968,88.0880065 32.6640058,89.1759956 31.512,90.056 C30.3599942,90.9360044 29.0000078,91.5919978 27.432,92.024 C25.8639922,92.4560022 24.1680091,92.672 22.344,92.672 C21.1279939,92.672 20.0000052,92.576001 18.96,92.384 C17.9199948,92.191999 16.9600044,91.9520014 16.08,91.664 C15.1999956,91.3759986 14.4240034,91.0720016 13.752,90.752 C13.0799966,90.4319984 12.5360021,90.1600011 12.12,89.936 L12.12,81.008 Z M39.48,80 C39.48,77.9839899 39.783997,76.1920078 40.392,74.624 C41.000003,73.0559922 41.8639944,71.7280054 42.984,70.64 C44.1040056,69.5519946 45.4399922,68.7280028 46.992,68.168 C48.5440078,67.6079972 50.2799904,67.328 52.2,67.328 C54.2160101,67.328 56.0159921,67.631997 57.6,68.24 C59.1840079,68.848003 60.5199946,69.7039945 61.608,70.808 C62.6960054,71.9120055 63.5199972,73.2479922 64.08,74.816 C64.6400028,76.3840078 64.92,78.1119906 64.92,80 C64.92,82.0160101 64.616003,83.8079922 64.008,85.376 C63.399997,86.9440078 62.5360056,88.2719946 61.416,89.36 C60.2959944,90.4480054 58.9600078,91.2719972 57.408,91.832 C55.8559922,92.3920028 54.1200096,92.672 52.2,92.672 C50.1839899,92.672 48.3840079,92.368003 46.8,91.76 C45.2159921,91.151997 43.8800054,90.2960055 42.792,89.192 C41.7039946,88.0879945 40.8800028,86.7520078 40.32,85.184 C39.7599972,83.6159922 39.48,81.8880094 39.48,80 Z M45.912,80 C45.912,81.0560053 46.0559986,82.0319955 46.344,82.928 C46.6320014,83.8240045 47.0479973,84.6079966 47.592,85.28 C48.1360027,85.9520034 48.7919962,86.4719982 49.56,86.84 C50.3280038,87.2080018 51.207995,87.392 52.2,87.392 C54.0560093,87.392 55.5679942,86.8000059 56.736,85.616 C57.9040058,84.4319941 58.488,82.5600128 58.488,80 C58.488,77.791989 57.9440054,76.0080068 56.856,74.648 C55.7679946,73.2879932 54.2160101,72.608 52.2,72.608 C51.3039955,72.608 50.4720038,72.7439986 49.704,73.016 C48.9359962,73.2880014 48.2720028,73.727997 47.712,74.336 C47.1519972,74.944003 46.7120016,75.7119954 46.392,76.64 C46.0719984,77.5680046 45.912,78.6879934 45.912,80 Z M82.44,68 L91.368,68 L91.368,86.72 L95.016,86.72 L95.016,92 L87.432,92 L86.328,88.448 L86.136,88.448 C85.3999963,89.6640061 84.2960074,90.671996 82.824,91.472 C81.3519926,92.272004 79.720009,92.672 77.928,92.672 C76.7119939,92.672 75.600005,92.5120016 74.592,92.192 C73.583995,91.8719984 72.7280035,91.3440037 72.024,90.608 C71.3199965,89.8719963 70.7760019,88.8800062 70.392,87.632 C70.0079981,86.3839938 69.816,84.8160094 69.816,82.928 L69.816,73.28 L67.08,73.28 L67.08,68 L76.056,68 L76.056,81.632 C76.056,83.5840098 76.3679969,84.9919957 76.992,85.856 C77.6160031,86.7200043 78.5999933,87.152 79.944,87.152 C81.1280059,87.152 82.1919953,86.8000035 83.136,86.096 C84.0800047,85.3919965 84.7439981,84.5280051 85.128,83.504 L85.128,73.28 L82.44,73.28 L82.44,68 Z M95.976,68 L104.376,68 L105.096,71.168 L105.288,71.168 C106.024004,70.1439949 107.079993,69.2480038 108.456,68.48 C109.832007,67.7119962 111.47999,67.328 113.4,67.328 C114.584006,67.328 115.695995,67.4879984 116.736,67.808 C117.776005,68.1280016 118.663996,68.6559963 119.4,69.392 C120.136004,70.1280037 120.719998,71.1279937 121.152,72.392 C121.584002,73.6560063 121.8,75.2159907 121.8,77.072 L121.8,92 L115.56,92 L115.56,78.368 C115.56,76.4159902 115.120004,75.0080043 114.24,74.144 C113.359996,73.2799957 112.248007,72.848 110.904,72.848 C109.719994,72.848 108.640005,73.1919966 107.664,73.88 C106.687995,74.5680034 106.024002,75.4239949 105.672,76.448 L105.672,92 L99.432,92 L99.432,73.28 L95.976,73.28 L95.976,68 Z M138.888,58.4 L148.92,58.4 L148.92,79.136 C148.92,81.536012 149.047999,83.9039883 149.304,86.24 C149.304,86.4000008 149.32,86.5599992 149.352,86.72 L152.424,86.72 L152.424,92 L144.696,92 L144.072,88.928 L143.88,88.928 C143.559998,89.5040029 143.128003,90.0159978 142.584,90.464 C142.039997,90.9120022 141.432003,91.3039983 140.76,91.64 C140.087997,91.9760017 139.352004,92.2319991 138.552,92.408 C137.751996,92.5840009 136.952004,92.672 136.152,92.672 C134.647992,92.672 133.232007,92.4320024 131.904,91.952 C130.575993,91.4719976 129.416005,90.728005 128.424,89.72 C127.431995,88.711995 126.648003,87.4320078 126.072,85.88 C125.495997,84.3279922 125.208,82.4960106 125.208,80.384 C125.208,78.3359898 125.519997,76.512008 126.144,74.912 C126.768003,73.311992 127.631994,71.9600055 128.736,70.856 C129.840006,69.7519945 131.143992,68.904003 132.648,68.312 C134.152008,67.719997 135.799991,67.424 137.592,67.424 C138.584005,67.424 139.519996,67.4799994 140.4,67.592 C141.280004,67.7040006 142.039997,67.8879987 142.68,68.144 L142.68,63.68 L138.888,63.68 L138.888,58.4 Z M137.592,87.392 C138.808006,87.392 139.887995,87.096003 140.832,86.504 C141.776005,85.911997 142.391999,85.0560056 142.68,83.936 L142.68,73.76 C142.231998,73.4079982 141.616004,73.1440009 140.832,72.968 C140.047996,72.7919991 139.224004,72.704 138.36,72.704 C137.495996,72.704 136.656004,72.8479986 135.84,73.136 C135.023996,73.4240014 134.304003,73.8799969 133.68,74.504 C133.055997,75.1280031 132.560002,75.935995 132.192,76.928 C131.823998,77.920005 131.64,79.1359928 131.64,80.576 C131.64,82.6240102 132.151995,84.2719938 133.176,85.52 C134.200005,86.7680062 135.67199,87.392 137.592,87.392 Z M178.584,66.224 C178.584,67.0560042 178.480001,67.8879958 178.272,68.72 C178.063999,69.5520042 177.720002,70.3119966 177.24,71 C176.759998,71.6880034 176.136004,72.2959974 175.368,72.824 C174.599996,73.3520026 173.672005,73.7439987 172.584,74 L172.584,74.288 C173.544005,74.4480008 174.455996,74.7199981 175.32,75.104 C176.184004,75.4880019 176.935997,76.0159966 177.576,76.688 C178.216003,77.3600034 178.719998,78.1759952 179.088,79.136 C179.456002,80.0960048 179.64,81.2319934 179.64,82.544 C179.64,84.2720086 179.272004,85.7679937 178.536,87.032 C177.799996,88.2960063 176.816006,89.327996 175.584,90.128 C174.351994,90.928004 172.952008,91.5199981 171.384,91.904 C169.815992,92.2880019 168.200008,92.48 166.536,92.48 L164.448,92.48 C163.599996,92.48 162.688005,92.4560002 161.712,92.408 C160.735995,92.3599998 159.744005,92.2880005 158.736,92.192 C157.727995,92.0959995 156.808004,91.952001 155.976,91.76 L155.976,58.64 C156.584003,58.5439995 157.279996,58.4480005 158.064,58.352 C158.848004,58.2559995 159.687996,58.1760003 160.584,58.112 C161.480004,58.0479997 162.399995,58.0000002 163.344,57.968 C164.288005,57.9359998 165.223995,57.92 166.152,57.92 C167.720008,57.92 169.247993,58.0399988 170.736,58.28 C172.224007,58.5200012 173.551994,58.943997 174.72,59.552 C175.888006,60.160003 176.823996,61.0079946 177.528,62.096 C178.232004,63.1840054 178.584,64.5599917 178.584,66.224 Z M166.584,87.056 C167.384004,87.056 168.159996,86.960001 168.912,86.768 C169.664004,86.575999 170.327997,86.280002 170.904,85.88 C171.480003,85.479998 171.943998,84.976003 172.296,84.368 C172.648002,83.759997 172.824,83.0400042 172.824,82.208 C172.824,81.1519947 172.616002,80.320003 172.2,79.712 C171.783998,79.103997 171.240003,78.6320017 170.568,78.296 C169.895997,77.9599983 169.144004,77.7440005 168.312,77.648 C167.479996,77.5519995 166.648004,77.504 165.816,77.504 L162.312,77.504 L162.312,86.768 C162.472001,86.8320003 162.727998,86.8799998 163.08,86.912 C163.432002,86.9440002 163.807998,86.9679999 164.208,86.984 C164.608002,87.0000001 165.023998,87.0159999 165.456,87.032 C165.888002,87.0480001 166.263998,87.056 166.584,87.056 Z M164.424,72.512 C164.872002,72.512 165.391997,72.4960002 165.984,72.464 C166.576003,72.4319998 167.063998,72.3840003 167.448,72.32 C168.664006,71.9359981 169.711996,71.3600038 170.592,70.592 C171.472004,69.8239962 171.912,68.8160062 171.912,67.568 C171.912,66.7359958 171.752002,66.0480027 171.432,65.504 C171.111998,64.9599973 170.688003,64.5280016 170.16,64.208 C169.631997,63.8879984 169.032003,63.6640006 168.36,63.536 C167.687997,63.4079994 166.984004,63.344 166.248,63.344 C165.415996,63.344 164.648004,63.3599998 163.944,63.392 C163.239996,63.4240002 162.696002,63.4719997 162.312,63.536 L162.312,72.512 L164.424,72.512 Z M197.64,68 L206.568,68 L206.568,86.72 L210.216,86.72 L210.216,92 L202.632,92 L201.528,88.448 L201.336,88.448 C200.599996,89.6640061 199.496007,90.671996 198.024,91.472 C196.551993,92.272004 194.920009,92.672 193.128,92.672 C191.911994,92.672 190.800005,92.5120016 189.792,92.192 C188.783995,91.8719984 187.928004,91.3440037 187.224,90.608 C186.519996,89.8719963 185.976002,88.8800062 185.592,87.632 C185.207998,86.3839938 185.016,84.8160094 185.016,82.928 L185.016,73.28 L182.28,73.28 L182.28,68 L191.256,68 L191.256,81.632 C191.256,83.5840098 191.567997,84.9919957 192.192,85.856 C192.816003,86.7200043 193.799993,87.152 195.144,87.152 C196.328006,87.152 197.391995,86.8000035 198.336,86.096 C199.280005,85.3919965 199.943998,84.5280051 200.328,83.504 L200.328,73.28 L197.64,73.28 L197.64,68 Z M225.288,58.4 L235.32,58.4 L235.32,79.136 C235.32,81.536012 235.447999,83.9039883 235.704,86.24 C235.704,86.4000008 235.72,86.5599992 235.752,86.72 L238.824,86.72 L238.824,92 L231.096,92 L230.472,88.928 L230.28,88.928 C229.959998,89.5040029 229.528003,90.0159978 228.984,90.464 C228.439997,90.9120022 227.832003,91.3039983 227.16,91.64 C226.487997,91.9760017 225.752004,92.2319991 224.952,92.408 C224.151996,92.5840009 223.352004,92.672 222.552,92.672 C221.047992,92.672 219.632007,92.4320024 218.304,91.952 C216.975993,91.4719976 215.816005,90.728005 214.824,89.72 C213.831995,88.711995 213.048003,87.4320078 212.472,85.88 C211.895997,84.3279922 211.608,82.4960106 211.608,80.384 C211.608,78.3359898 211.919997,76.512008 212.544,74.912 C213.168003,73.311992 214.031994,71.9600055 215.136,70.856 C216.240006,69.7519945 217.543992,68.904003 219.048,68.312 C220.552008,67.719997 222.199991,67.424 223.992,67.424 C224.984005,67.424 225.919996,67.4799994 226.8,67.592 C227.680004,67.7040006 228.439997,67.8879987 229.08,68.144 L229.08,63.68 L225.288,63.68 L225.288,58.4 Z M223.992,87.392 C225.208006,87.392 226.287995,87.096003 227.232,86.504 C228.176005,85.911997 228.791999,85.0560056 229.08,83.936 L229.08,73.76 C228.631998,73.4079982 228.016004,73.1440009 227.232,72.968 C226.447996,72.7919991 225.624004,72.704 224.76,72.704 C223.895996,72.704 223.056004,72.8479986 222.24,73.136 C221.423996,73.4240014 220.704003,73.8799969 220.08,74.504 C219.455997,75.1280031 218.960002,75.935995 218.592,76.928 C218.223998,77.920005 218.04,79.1359928 218.04,80.576 C218.04,82.6240102 218.551995,84.2719938 219.576,85.52 C220.600005,86.7680062 222.07199,87.392 223.992,87.392 Z M254.088,58.4 L264.12,58.4 L264.12,79.136 C264.12,81.536012 264.247999,83.9039883 264.504,86.24 C264.504,86.4000008 264.52,86.5599992 264.552,86.72 L267.624,86.72 L267.624,92 L259.896,92 L259.272,88.928 L259.08,88.928 C258.759998,89.5040029 258.328003,90.0159978 257.784,90.464 C257.239997,90.9120022 256.632003,91.3039983 255.96,91.64 C255.287997,91.9760017 254.552004,92.2319991 253.752,92.408 C252.951996,92.5840009 252.152004,92.672 251.352,92.672 C249.847992,92.672 248.432007,92.4320024 247.104,91.952 C245.775993,91.4719976 244.616005,90.728005 243.624,89.72 C242.631995,88.711995 241.848003,87.4320078 241.272,85.88 C240.695997,84.3279922 240.408,82.4960106 240.408,80.384 C240.408,78.3359898 240.719997,76.512008 241.344,74.912 C241.968003,73.311992 242.831994,71.9600055 243.936,70.856 C245.040006,69.7519945 246.343992,68.904003 247.848,68.312 C249.352008,67.719997 250.999991,67.424 252.792,67.424 C253.784005,67.424 254.719996,67.4799994 255.6,67.592 C256.480004,67.7040006 257.239997,67.8879987 257.88,68.144 L257.88,63.68 L254.088,63.68 L254.088,58.4 Z M252.792,87.392 C254.008006,87.392 255.087995,87.096003 256.032,86.504 C256.976005,85.911997 257.591999,85.0560056 257.88,83.936 L257.88,73.76 C257.431998,73.4079982 256.816004,73.1440009 256.032,72.968 C255.247996,72.7919991 254.424004,72.704 253.56,72.704 C252.695996,72.704 251.856004,72.8479986 251.04,73.136 C250.223996,73.4240014 249.504003,73.8799969 248.88,74.504 C248.255997,75.1280031 247.760002,75.935995 247.392,76.928 C247.023998,77.920005 246.84,79.1359928 246.84,80.576 C246.84,82.6240102 247.351995,84.2719938 248.376,85.52 C249.400005,86.7680062 250.87199,87.392 252.792,87.392 Z M282.648,85.232 L284.472,85.232 L289.128,68 L295.56,68 L288.744,89.648 C288.135997,91.440009 287.544003,93.0799926 286.968,94.568 C286.391997,96.0560074 285.720004,97.3439946 284.952,98.432 C284.183996,99.5200054 283.280005,100.359997 282.24,100.952 C281.199995,101.544003 279.928008,101.84 278.424,101.84 C277.687996,101.84 276.992003,101.744001 276.336,101.552 C275.679997,101.359999 275.080003,101.128001 274.536,100.856 C273.991997,100.583999 273.512002,100.296002 273.096,99.992 C272.679998,99.6879985 272.344001,99.4080013 272.088,99.152 L275.304,94.88 C275.720002,95.2320018 276.215997,95.5599985 276.792,95.864 C277.368003,96.1680015 277.911997,96.32 278.424,96.32 C279.384005,96.32 280.143997,95.9840034 280.704,95.312 C281.264003,94.6399966 281.799997,93.5360077 282.312,92 L278.904,92 L268.92,68 L275.688,68 L282.648,85.232 Z" id="SoundBuddy" fill="#FFFFFF"></path>
                <path d="M291,70 C291,70 326.260022,50.1055411 314,37 C285,6 26,148 4,101 C-18,54 142,39 142,39" id="Path-2" stroke="#FF7F00" stroke-width="3"></path>
                <path d="M12.12,81.008 L17.4,81.008 L17.4,85.76 L17.688,85.856 C18.4240037,86.1760016 19.2319956,86.439999 20.112,86.648 C20.9920044,86.856001 21.927995,86.96 22.92,86.96 C24.712009,86.96 26.103995,86.6000036 27.096,85.88 C28.088005,85.1599964 28.584,84.1920061 28.584,82.976 C28.584,81.8879946 28.1760041,81.0080034 27.36,80.336 C26.5439959,79.6639966 25.536006,79.0720026 24.336,78.56 C23.135994,78.0479974 21.8240071,77.5360026 20.4,77.024 C18.9759929,76.5119974 17.664006,75.8640039 16.464,75.08 C15.263994,74.2959961 14.2560041,73.3120059 13.44,72.128 C12.6239959,70.9439941 12.216,69.4080094 12.216,67.52 C12.216,66.0799928 12.4959972,64.760006 13.056,63.56 C13.6160028,62.359994 14.399995,61.3280043 15.408,60.464 C16.416005,59.5999957 17.623993,58.9280024 19.032,58.448 C20.440007,57.9679976 20.9920044,63.743997 20.112,64.352 C19.2319956,64.960003 18.792,65.7759949 18.792,66.8 C18.792,67.8560053 19.1999959,68.7199966 20.016,69.392 C20.8320041,70.0640034 21.839994,70.6719973 23.04,71.216 C24.240006,71.7600027 25.5519929,72.3039973 26.976,72.848 C28.4000071,73.3920027 29.711994,74.0559961 30.912,74.84 C32.112006,75.6240039 33.1199959,76.6079941 33.936,77.792 C34.7520041,78.9760059 35.16,80.463991 35.16,82.256 C35.16,83.9840086 34.8400032,85.4959935 34.2,86.792 C33.5599968,88.0880065 32.6640058,89.1759956 31.512,90.056 C30.3599942,90.9360044 29.0000078,91.5919978 27.432,92.024 C25.8639922,92.4560022 24.1680091,92.672 22.344,92.672 C21.1279939,92.672 20.0000052,92.576001 18.96,92.384 C17.9199948,92.191999 16.9600044,91.9520014 16.08,91.664 C15.1999956,91.3759986 14.4240034,91.0720016 13.752,90.752 C13.0799966,90.4319984 12.5360021,90.1600011 12.12,89.936 L12.12,81.008 Z M39.48,80 C39.48,77.9839899 39.783997,76.1920078 40.392,74.624 C41.000003,73.0559922 41.8639944,71.7280054 42.984,70.64 C44.1040056,69.5519946 45.4399922,68.7280028 46.992,68.168 C48.5440078,67.6079972 50.2799904,67.328 52.2,67.328 C54.2160101,67.328 56.0159921,67.631997 57.6,68.24 C59.1840079,68.848003 60.5199946,69.7039945 61.608,70.808 C62.6960054,71.9120055 63.5199972,73.2479922 64.08,74.816 C64.6400028,76.3840078 64.92,78.1119906 64.92,80 C64.92,82.0160101 64.616003,83.8079922 64.008,85.376 C63.399997,86.9440078 62.5360056,88.2719946 61.416,89.36 C60.2959944,90.4480054 58.9600078,91.2719972 57.408,91.832 C55.8559922,92.3920028 54.1200096,92.672 52.2,92.672 C50.1839899,92.672 48.3840079,92.368003 46.8,91.76 C45.2159921,91.151997 43.8800054,90.2960055 42.792,89.192 C41.7039946,88.0879945 40.8800028,86.7520078 40.32,85.184 C39.7599972,83.6159922 39.48,81.8880094 39.48,80 Z M45.912,80 C45.912,81.0560053 46.0559986,82.0319955 46.344,82.928 C46.6320014,83.8240045 47.0479973,84.6079966 47.592,85.28 C48.1360027,85.9520034 48.7919962,86.4719982 49.56,86.84 C50.3280038,87.2080018 51.207995,87.392 52.2,87.392 C54.0560093,87.392 55.5679942,86.8000059 56.736,85.616 C57.9040058,84.4319941 58.488,82.5600128 58.488,80 C58.488,77.791989 57.9440054,76.0080068 56.856,74.648 C55.7679946,73.2879932 54.2160101,72.608 52.2,72.608 C51.3039955,72.608 50.4720038,72.7439986 49.704,73.016 C48.9359962,73.2880014 48.2720028,73.727997 47.712,74.336 C47.1519972,74.944003 46.7120016,75.7119954 46.392,76.64 C46.0719984,77.5680046 45.912,78.6879934 45.912,80 Z M82.44,68 L91.368,68 L91.368,86.72 L95.016,86.72 L95.016,92 L87.432,92 L86.328,88.448 L86.136,88.448 C85.3999963,89.6640061 84.2960074,90.671996 82.824,91.472 C81.3519926,92.272004 79.720009,92.672 77.928,92.672 C76.7119939,92.672 75.600005,92.5120016 74.592,92.192 C73.583995,91.8719984 72.7280035,91.3440037 72.024,90.608 C71.3199965,89.8719963 70.7760019,88.8800062 70.392,87.632 C70.0079981,86.3839938 69.816,84.8160094 69.816,82.928 L69.816,73.28 L67.08,73.28 L67.08,68 L76.056,68 L76.056,81.632 C76.056,83.5840098 76.3679969,84.9919957 76.992,85.856 C77.6160031,86.7200043 78.5999933,87.152 79.944,87.152 C81.1280059,87.152 82.1919953,86.8000035 83.136,86.096 C84.0800047,85.3919965 84.7439981,84.5280051 85.128,83.504 L85.128,73.28 L82.44,73.28 L82.44,68 Z M95.976,68 L104.376,68 L105.096,71.168 L105.288,71.168 C106.024004,70.1439949 107.079993,69.2480038 108.456,68.48 C109.832007,67.7119962 111.47999,67.328 113.4,67.328 C114.584006,67.328 115.695995,67.4879984 116.736,67.808 C117.776005,68.1280016 118.663996,68.6559963 119.4,69.392 C120.136004,70.1280037 120.719998,71.1279937 121.152,72.392 C121.584002,73.6560063 121.8,75.2159907 121.8,77.072 L121.8,92 L115.56,92 L115.56,78.368 C115.56,76.4159902 115.120004,75.0080043 114.24,74.144 C113.359996,73.2799957 112.248007,72.848 110.904,72.848 C109.719994,72.848 108.640005,73.1919966 107.664,73.88 C106.687995,74.5680034 106.024002,75.4239949 105.672,76.448 L105.672,92 L99.432,92 L99.432,73.28 L95.976,73.28 L95.976,68 Z M138.888,58.4 L148.92,58.4 L148.92,79.136 C148.92,81.536012 149.047999,83.9039883 149.304,86.24 C149.304,86.4000008 149.32,86.5599992 149.352,86.72 L152.424,86.72 L152.424,92 L144.696,92 L144.072,88.928 L143.88,88.928 C143.559998,89.5040029 143.128003,90.0159978 142.584,90.464 C142.039997,90.9120022 141.432003,91.3039983 140.76,91.64 C140.087997,91.9760017 139.352004,92.2319991 138.552,92.408 C137.751996,92.5840009 136.952004,92.672 136.152,92.672 C134.647992,92.672 133.232007,92.4320024 131.904,91.952 C130.575993,91.4719976 129.416005,90.728005 128.424,89.72 C127.431995,88.711995 126.648003,87.4320078 126.072,85.88 C125.495997,84.3279922 125.208,82.4960106 125.208,80.384 C125.208,78.3359898 125.519997,76.512008 126.144,74.912 C126.768003,73.311992 127.631994,71.9600055 128.736,70.856 C129.840006,69.7519945 131.143992,68.904003 132.648,68.312 C134.152008,67.719997 135.799991,67.424 137.592,67.424 C138.584005,67.424 139.519996,67.4799994 140.4,67.592 C141.280004,67.7040006 142.039997,67.8879987 142.68,68.144 L142.68,63.68 L138.888,63.68 L138.888,58.4 Z M137.592,87.392 C138.808006,87.392 139.887995,87.096003 140.832,86.504 C141.776005,85.911997 142.391999,85.0560056 142.68,83.936 L142.68,73.76 C142.231998,73.4079982 141.616004,73.1440009 140.832,72.968 C140.047996,72.7919991 139.224004,72.704 138.36,72.704 C137.495996,72.704 136.656004,72.8479986 135.84,73.136 C135.023996,73.4240014 134.304003,73.8799969 133.68,74.504 C133.055997,75.1280031 132.560002,75.935995 132.192,76.928 C131.823998,77.920005 131.64,79.1359928 131.64,80.576 C131.64,82.6240102 132.151995,84.2719938 133.176,85.52 C134.200005,86.7680062 135.67199,87.392 137.592,87.392 Z M197.64,68 L206.568,68 L206.568,86.72 L210.216,86.72 L210.216,92 L202.632,92 L201.528,88.448 L201.336,88.448 C200.599996,89.6640061 199.496007,90.671996 198.024,91.472 C196.551993,92.272004 194.920009,92.672 193.128,92.672 C191.911994,92.672 190.800005,92.5120016 189.792,92.192 C188.783995,91.8719984 187.928004,91.3440037 187.224,90.608 C186.519996,89.8719963 185.976002,88.8800062 185.592,87.632 C185.207998,86.3839938 185.016,84.8160094 185.016,82.928 L185.016,73.28 L182.28,73.28 L182.28,68 L191.256,68 L191.256,81.632 C191.256,83.5840098 191.567997,84.9919957 192.192,85.856 C192.816003,86.7200043 193.799993,87.152 195.144,87.152 C196.328006,87.152 197.391995,86.8000035 198.336,86.096 C199.280005,85.3919965 199.943998,84.5280051 200.328,83.504 L200.328,73.28 L197.64,73.28 L197.64,68 Z M225.288,58.4 L235.32,58.4 L235.32,79.136 C235.32,81.536012 235.447999,83.9039883 235.704,86.24 C235.704,86.4000008 235.72,86.5599992 235.752,86.72 L238.824,86.72 L238.824,92 L231.096,92 L230.472,88.928 L230.28,88.928 C229.959998,89.5040029 229.528003,90.0159978 228.984,90.464 C228.439997,90.9120022 227.832003,91.3039983 227.16,91.64 C226.487997,91.9760017 225.752004,92.2319991 224.952,92.408 C224.151996,92.5840009 223.352004,92.672 222.552,92.672 C221.047992,92.672 219.632007,92.4320024 218.304,91.952 C216.975993,91.4719976 215.816005,90.728005 214.824,89.72 C213.831995,88.711995 213.048003,87.4320078 212.472,85.88 C211.895997,84.3279922 211.608,82.4960106 211.608,80.384 C211.608,78.3359898 211.919997,76.512008 212.544,74.912 C213.168003,73.311992 214.031994,71.9600055 215.136,70.856 C216.240006,69.7519945 217.543992,68.904003 219.048,68.312 C220.552008,67.719997 222.199991,67.424 223.992,67.424 C224.984005,67.424 225.919996,67.4799994 226.8,67.592 C227.680004,67.7040006 228.439997,67.8879987 229.08,68.144 L229.08,63.68 L225.288,63.68 L225.288,58.4 Z M223.992,87.392 C225.208006,87.392 226.287995,87.096003 227.232,86.504 C228.176005,85.911997 228.791999,85.0560056 229.08,83.936 L229.08,73.76 C228.631998,73.4079982 228.016004,73.1440009 227.232,72.968 C226.447996,72.7919991 225.624004,72.704 224.76,72.704 C223.895996,72.704 223.056004,72.8479986 222.24,73.136 C221.423996,73.4240014 220.704003,73.8799969 220.08,74.504 C219.455997,75.1280031 218.960002,75.935995 218.592,76.928 C218.223998,77.920005 218.04,79.1359928 218.04,80.576 C218.04,82.6240102 218.551995,84.2719938 219.576,85.52 C220.600005,86.7680062 222.07199,87.392 223.992,87.392 Z M254.088,58.4 L264.12,58.4 L264.12,79.136 C264.12,81.536012 264.247999,83.9039883 264.504,86.24 C264.504,86.4000008 264.52,86.5599992 264.552,86.72 L267.624,86.72 L267.624,92 L259.896,92 L259.272,88.928 L259.08,88.928 C258.759998,89.5040029 258.328003,90.0159978 257.784,90.464 C257.239997,90.9120022 256.632003,91.3039983 255.96,91.64 C255.287997,91.9760017 254.552004,92.2319991 253.752,92.408 C252.951996,92.5840009 252.152004,92.672 251.352,92.672 C249.847992,92.672 248.432007,92.4320024 247.104,91.952 C245.775993,91.4719976 244.616005,90.728005 243.624,89.72 C242.631995,88.711995 241.848003,87.4320078 241.272,85.88 C240.695997,84.3279922 240.408,82.4960106 240.408,80.384 C240.408,78.3359898 240.719997,76.512008 241.344,74.912 C241.968003,73.311992 242.831994,71.9600055 243.936,70.856 C245.040006,69.7519945 246.343992,68.904003 247.848,68.312 C249.352008,67.719997 250.999991,67.424 252.792,67.424 C253.784005,67.424 254.719996,67.4799994 255.6,67.592 C256.480004,67.7040006 257.239997,67.8879987 257.88,68.144 L257.88,63.68 L254.088,63.68 L254.088,58.4 Z M252.792,87.392 C254.008006,87.392 255.087995,87.096003 256.032,86.504 C256.976005,85.911997 257.591999,85.0560056 257.88,83.936 L257.88,73.76 C257.431998,73.4079982 256.816004,73.1440009 256.032,72.968 C255.247996,72.7919991 254.424004,72.704 253.56,72.704 C252.695996,72.704 251.856004,72.8479986 251.04,73.136 C250.223996,73.4240014 249.504003,73.8799969 248.88,74.504 C248.255997,75.1280031 247.760002,75.935995 247.392,76.928 C247.023998,77.920005 246.84,79.1359928 246.84,80.576 C246.84,82.6240102 247.351995,84.2719938 248.376,85.52 C249.400005,86.7680062 250.87199,87.392 252.792,87.392 Z M282.648,85.232 L284.472,85.232 L289.128,68 L295.56,68 L288.744,89.648 C288.135997,91.440009 287.544003,93.0799926 286.968,94.568 C286.391997,96.0560074 285.720004,97.3439946 284.952,98.432 C284.183996,99.5200054 283.280005,100.359997 282.24,100.952 C281.199995,101.544003 279.928008,101.84 278.424,101.84 C277.687996,101.84 276.992003,101.744001 276.336,101.552 C275.679997,101.359999 275.080003,101.128001 274.536,100.856 C273.991997,100.583999 273.512002,100.296002 273.096,99.992 C272.679998,99.6879985 272.344001,99.4080013 272.088,99.152 L275.304,94.88 C275.720002,95.2320018 276.215997,95.5599985 276.792,95.864 C277.368003,96.1680015 277.911997,96.32 278.424,96.32 C279.384005,96.32 280.143997,95.9840034 280.704,95.312 C281.264003,94.6399966 281.799997,93.5360077 282.312,92 L278.904,92 L268.92,68 L275.688,68 L282.648,85.232 Z" id="SoundBuddy" fill="#FFFFFF"></path>
                <path d="M150.180028,5.2173212 C139.252413,5.2173212 130.39159,14.0781443 130.39159,25.0057598 L130.39159,40.3967676 C130.39159,44.0466352 133.337868,46.9929138 136.987736,46.9929138 L143.583882,46.9929138 L143.583882,29.4031906 L134.789021,29.4031906 L134.789021,25.0057598 C134.789021,16.4967312 141.671,9.614752 150.180028,9.614752 C158.689057,9.614752 165.571036,16.4967312 165.571036,25.0057598 L165.571036,29.4031906 L156.776175,29.4031906 L156.776175,46.9929138 L163.372321,46.9929138 C167.022188,46.9929138 169.968467,44.0466352 169.968467,40.3967676 L169.968467,25.0057598 C169.968467,14.0781443 161.107644,5.2173212 150.180028,5.2173212 Z" id="Shape" fill="#FF7F00" fill-rule="nonzero" transform="translate(150.180028, 26.105118) rotate(-15.000000) translate(-150.180028, -26.105118) "></path>
            </g>
        </g>
    </g>
</svg>