<?xml version="1.0" encoding="UTF-8"?>
<svg width="1050px" height="250px" viewBox="0 0 1050 250" version="1.1" xmlns="http://www.w3.org/2000/svg" xmlns:xlink="http://www.w3.org/1999/xlink">
    <!-- Generator: Sketch 43.2 (39069) - http://www.bohemiancoding.com/sketch -->
    <title>waves</title>
    <desc>Created with Sketch.</desc>
    <defs></defs>
    <g id="Main" stroke="none" stroke-width="1" fill="none" fill-rule="evenodd">
        <g id="Artboard" transform="translate(0.000000, -75.000000)" fill="#FFFFFF">
            <g id="Group-4" transform="translate(0.000000, 75.000000)">
                <g id="Waves">
                    <g id="Group-3-Copy-5" transform="translate(810.000000, 0.000000)">
                        <g id="Group-2">
                            <rect id="Rectangle-4-Copy-14" fill-opacity="0.102638134" x="110" y="115" width="4" height="20"></rect>
                            <rect id="Rectangle-4-Copy-13" fill-opacity="0.102638134" x="100" y="105" width="4" height="40"></rect>
                            <rect id="Rectangle-4-Copy-12" fill-opacity="0.102638134" x="90" y="110" width="4" height="30"></rect>
                            <rect id="Rectangle-4-Copy-11" fill-opacity="0.3" x="80" y="115" width="4" height="20"></rect>
                            <rect id="Rectangle-4-Copy-10" fill-opacity="0.102638134" x="70" y="99" width="4" height="52"></rect>
                            <rect id="Rectangle-4-Copy-9" fill-opacity="0.102638134" x="60" y="105" width="4" height="40"></rect>
                            <rect id="Rectangle-4-Copy-8" fill-opacity="0.102638134" x="50" y="95" width="4" height="60"></rect>
                            <rect id="Rectangle-4-Copy-7" fill-opacity="0.102638134" x="40" y="10" width="4" height="230"></rect>
                            <rect id="Rectangle-4-Copy-6" fill-opacity="0.2" x="30" y="0" width="4" height="250"></rect>
                            <rect id="Rectangle-4-Copy-5" fill-opacity="0.102638134" x="20" y="55" width="4" height="140"></rect>
                            <rect id="Rectangle-4-Copy" fill-opacity="0.102638134" x="10" y="65" width="4" height="120"></rect>
                            <rect id="Rectangle-4" fill-opacity="0.102638134" x="0" y="74" width="4" height="103"></rect>
                        </g>
                        <g id="Group" transform="translate(177.000000, 125.000000) rotate(-180.000000) translate(-177.000000, -125.000000) translate(120.000000, 10.000000)" fill-opacity="0.102638134">
                            <rect id="Rectangle-4-Copy-14" x="110" y="105" width="4" height="20"></rect>
                            <rect id="Rectangle-4-Copy-13" x="100" y="80" width="4" height="70"></rect>
                            <rect id="Rectangle-4-Copy-12" x="90" y="100" width="4" height="30"></rect>
                            <rect id="Rectangle-4-Copy-11" x="80" y="105" width="4" height="20"></rect>
                            <rect id="Rectangle-4-Copy-10" x="70" y="89" width="4" height="52"></rect>
                            <rect id="Rectangle-4-Copy-9" x="60" y="95" width="4" height="40"></rect>
                            <rect id="Rectangle-4-Copy-8" x="50" y="85" width="4" height="60"></rect>
                            <rect id="Rectangle-4-Copy-7" x="40" y="0" width="4" height="230"></rect>
                            <rect id="Rectangle-4-Copy-6" x="30" y="50" width="4" height="130"></rect>
                            <rect id="Rectangle-4-Copy-5" x="20" y="45" width="4" height="140"></rect>
                            <rect id="Rectangle-4-Copy" x="10" y="55" width="4" height="120"></rect>
                            <rect id="Rectangle-4" x="0" y="64" width="4" height="103"></rect>
                        </g>
                    </g>
                    <g id="Group-3-Copy-4" transform="translate(570.000000, 0.000000)">
                        <g id="Group-2" fill-opacity="0.102638134">
                            <rect id="Rectangle-4-Copy-14" x="110" y="115" width="4" height="20"></rect>
                            <rect id="Rectangle-4-Copy-13" x="100" y="105" width="4" height="40"></rect>
                            <rect id="Rectangle-4-Copy-12" x="90" y="110" width="4" height="30"></rect>
                            <rect id="Rectangle-4-Copy-11" x="80" y="115" width="4" height="20"></rect>
                            <rect id="Rectangle-4-Copy-10" x="70" y="99" width="4" height="52"></rect>
                            <rect id="Rectangle-4-Copy-9" x="60" y="105" width="4" height="40"></rect>
                            <rect id="Rectangle-4-Copy-8" x="50" y="95" width="4" height="60"></rect>
                            <rect id="Rectangle-4-Copy-7" x="40" y="10" width="4" height="230"></rect>
                            <rect id="Rectangle-4-Copy-6" x="30" y="0" width="4" height="250"></rect>
                            <rect id="Rectangle-4-Copy-5" x="20" y="55" width="4" height="140"></rect>
                            <rect id="Rectangle-4-Copy" x="10" y="65" width="4" height="120"></rect>
                            <rect id="Rectangle-4" x="0" y="74" width="4" height="103"></rect>
                        </g>
                        <g id="Group" transform="translate(177.000000, 125.000000) rotate(-180.000000) translate(-177.000000, -125.000000) translate(120.000000, 10.000000)">
                            <rect id="Rectangle-4-Copy-14" fill-opacity="0.102638134" x="110" y="105" width="4" height="20"></rect>
                            <rect id="Rectangle-4-Copy-13" fill-opacity="0.102638134" x="100" y="80" width="4" height="70"></rect>
                            <rect id="Rectangle-4-Copy-12" fill-opacity="0.102638134" x="90" y="100" width="4" height="30"></rect>
                            <rect id="Rectangle-4-Copy-11" fill-opacity="0.102638134" x="80" y="105" width="4" height="20"></rect>
                            <rect id="Rectangle-4-Copy-10" fill-opacity="0.102638134" x="70" y="89" width="4" height="52"></rect>
                            <rect id="Rectangle-4-Copy-9" fill-opacity="0.102638134" x="60" y="95" width="4" height="40"></rect>
                            <rect id="Rectangle-4-Copy-8" fill-opacity="0.102638134" x="50" y="85" width="4" height="60"></rect>
                            <rect id="Rectangle-4-Copy-7" fill-opacity="0.102638134" x="40" y="0" width="4" height="230"></rect>
                            <rect id="Rectangle-4-Copy-6" fill-opacity="0.102638134" x="30" y="50" width="4" height="130"></rect>
                            <rect id="Rectangle-4-Copy-5" fill-opacity="0.102638134" x="20" y="45" width="4" height="140"></rect>
                            <rect id="Rectangle-4-Copy" fill-opacity="0.2" x="10" y="55" width="4" height="120"></rect>
                            <rect id="Rectangle-4" fill-opacity="0.102638134" x="0" y="64" width="4" height="103"></rect>
                        </g>
                    </g>
                    <g id="Group-3-Copy" transform="translate(240.000000, 0.000000)">
                        <g id="Group-2">
                            <rect id="Rectangle-4-Copy-14" fill-opacity="0.102638134" x="110" y="115" width="4" height="20"></rect>
                            <rect id="Rectangle-4-Copy-13" fill-opacity="0.102638134" x="100" y="105" width="4" height="40"></rect>
                            <rect id="Rectangle-4-Copy-12" fill-opacity="0.102638134" x="90" y="110" width="4" height="30"></rect>
                            <rect id="Rectangle-4-Copy-11" fill-opacity="0.102638134" x="80" y="115" width="4" height="20"></rect>
                            <rect id="Rectangle-4-Copy-10" fill-opacity="0.102638134" x="70" y="99" width="4" height="52"></rect>
                            <rect id="Rectangle-4-Copy-9" fill-opacity="0.102638134" x="60" y="105" width="4" height="40"></rect>
                            <rect id="Rectangle-4-Copy-8" fill-opacity="0.102638134" x="50" y="95" width="4" height="60"></rect>
                            <rect id="Rectangle-4-Copy-7" fill-opacity="0.102638134" x="40" y="10" width="4" height="230"></rect>
                            <rect id="Rectangle-4-Copy-6" fill-opacity="0.102638134" x="30" y="0" width="4" height="250"></rect>
                            <rect id="Rectangle-4-Copy-5" fill-opacity="0.102638134" x="20" y="55" width="4" height="140"></rect>
                            <rect id="Rectangle-4-Copy" fill-opacity="0.102638134" x="10" y="65" width="4" height="120"></rect>
                            <rect id="Rectangle-4" fill-opacity="0.2" x="0" y="74" width="4" height="103"></rect>
                        </g>
                        <g id="Group" transform="translate(177.000000, 125.000000) rotate(-180.000000) translate(-177.000000, -125.000000) translate(120.000000, 55.000000)" fill-opacity="0.102638134">
                            <rect id="Rectangle-4-Copy-14" x="110" y="60" width="4" height="20"></rect>
                            <rect id="Rectangle-4-Copy-13" x="100" y="35" width="4" height="70"></rect>
                            <rect id="Rectangle-4-Copy-12" x="90" y="55" width="4" height="30"></rect>
                            <rect id="Rectangle-4-Copy-11" x="80" y="60" width="4" height="20"></rect>
                            <rect id="Rectangle-4-Copy-10" x="70" y="44" width="4" height="52"></rect>
                            <rect id="Rectangle-4-Copy-9" x="60" y="50" width="4" height="40"></rect>
                            <rect id="Rectangle-4-Copy-8" x="50" y="40" width="4" height="60"></rect>
                            <rect id="Rectangle-4-Copy-7" x="40" y="17" width="4" height="106"></rect>
                            <rect id="Rectangle-4-Copy-6" x="30" y="5" width="4" height="130"></rect>
                            <rect id="Rectangle-4-Copy-5" x="20" y="0" width="4" height="140"></rect>
                            <rect id="Rectangle-4-Copy" x="10" y="10" width="4" height="120"></rect>
                            <rect id="Rectangle-4" x="0" y="19" width="4" height="103"></rect>
                        </g>
                    </g>
                    <g id="Group-3">
                        <g id="Group-2">
                            <rect id="Rectangle-4-Copy-14" fill-opacity="0.3" x="110" y="115" width="4" height="20"></rect>
                            <rect id="Rectangle-4-Copy-13" fill-opacity="0.102638134" x="100" y="105" width="4" height="40"></rect>
                            <rect id="Rectangle-4-Copy-12" fill-opacity="0.102638134" x="90" y="110" width="4" height="30"></rect>
                            <rect id="Rectangle-4-Copy-11" fill-opacity="0.102638134" x="80" y="115" width="4" height="20"></rect>
                            <rect id="Rectangle-4-Copy-10" fill-opacity="0.102638134" x="70" y="99" width="4" height="52"></rect>
                            <rect id="Rectangle-4-Copy-9" fill-opacity="0.102638134" x="60" y="105" width="4" height="40"></rect>
                            <rect id="Rectangle-4-Copy-8" fill-opacity="0.102638134" x="50" y="95" width="4" height="60"></rect>
                            <rect id="Rectangle-4-Copy-7" fill-opacity="0.102638134" x="40" y="10" width="4" height="230"></rect>
                            <rect id="Rectangle-4-Copy-6" fill-opacity="0.102638134" x="30" y="0" width="4" height="250"></rect>
                            <rect id="Rectangle-4-Copy-5" fill-opacity="0.102638134" x="20" y="55" width="4" height="140"></rect>
                            <rect id="Rectangle-4-Copy" fill-opacity="0.102638134" x="10" y="65" width="4" height="120"></rect>
                            <rect id="Rectangle-4" fill-opacity="0.102638134" x="0" y="74" width="4" height="103"></rect>
                        </g>
                        <g id="Group" transform="translate(177.000000, 125.000000) rotate(-180.000000) translate(-177.000000, -125.000000) translate(120.000000, 10.000000)">
                            <rect id="Rectangle-4-Copy-14" fill-opacity="0.102638134" x="110" y="105" width="4" height="20"></rect>
                            <rect id="Rectangle-4-Copy-13" fill-opacity="0.102638134" x="100" y="80" width="4" height="70"></rect>
                            <rect id="Rectangle-4-Copy-12" fill-opacity="0.102638134" x="90" y="100" width="4" height="30"></rect>
                            <rect id="Rectangle-4-Copy-11" fill-opacity="0.102638134" x="80" y="105" width="4" height="20"></rect>
                            <rect id="Rectangle-4-Copy-10" fill-opacity="0.102638134" x="70" y="89" width="4" height="52"></rect>
                            <rect id="Rectangle-4-Copy-9" fill-opacity="0.102638134" x="60" y="95" width="4" height="40"></rect>
                            <rect id="Rectangle-4-Copy-8" fill-opacity="0.102638134" x="50" y="85" width="4" height="60"></rect>
                            <rect id="Rectangle-4-Copy-7" fill-opacity="0.2" x="40" y="0" width="4" height="230"></rect>
                            <rect id="Rectangle-4-Copy-6" fill-opacity="0.102638134" x="30" y="50" width="4" height="130"></rect>
                            <rect id="Rectangle-4-Copy-5" fill-opacity="0.102638134" x="20" y="45" width="4" height="140"></rect>
                            <rect id="Rectangle-4-Copy" fill-opacity="0.102638134" x="10" y="55" width="4" height="120"></rect>
                            <rect id="Rectangle-4" fill-opacity="0.102638134" x="0" y="64" width="4" height="103"></rect>
                        </g>
                    </g>
                </g>
                <rect id="Rectangle-4-Copy-14" fill-opacity="0.3" x="540" y="115" width="4" height="20"></rect>
                <rect id="Rectangle-4-Copy-13" fill-opacity="0.102638134" x="530" y="105" width="4" height="40"></rect>
                <rect id="Rectangle-4-Copy-12" fill-opacity="0.102638134" x="520" y="110" width="4" height="30"></rect>
                <rect id="Rectangle-4-Copy-11" fill-opacity="0.102638134" x="510" y="115" width="4" height="20"></rect>
                <rect id="Rectangle-4-Copy-10" fill-opacity="0.102638134" x="500" y="99" width="4" height="52"></rect>
                <rect id="Rectangle-4-Copy-9" fill-opacity="0.102638134" x="490" y="105" width="4" height="40"></rect>
                <rect id="Rectangle-4-Copy-8" fill-opacity="0.102638134" x="480" y="95" width="4" height="60"></rect>
                <rect id="Rectangle-4-Copy-14" fill-opacity="0.102638134" x="550" y="115" width="4" height="20"></rect>
                <rect id="Rectangle-4-Copy-13" fill-opacity="0.102638134" x="560" y="90" width="4" height="70"></rect>
            </g>
        </g>
    </g>
</svg>