<?xml version="1.0" encoding="UTF-8"?>
<svg width="116px" height="40px" viewBox="0 0 116 40" version="1.1" xmlns="http://www.w3.org/2000/svg" xmlns:xlink="http://www.w3.org/1999/xlink">
    <!-- Generator: Sketch 43.2 (39069) - http://www.bohemiancoding.com/sketch -->
    <title>logo-small</title>
    <desc>Created with Sketch.</desc>
    <defs></defs>
    <g id="Main" stroke="none" stroke-width="1" fill="none" fill-rule="evenodd">
        <g id="Login" transform="translate(-151.000000, -13.000000)">
            <g id="Logo-/-Small" transform="translate(151.000000, 12.000000)">
                <path d="M5.01040027,29.0569369 L6.91310298,29.0569369 L6.91310298,30.7693694 L7.01688676,30.803964 C7.28211331,30.9192799 7.57328157,31.014414 7.89040027,31.0893694 C8.20751898,31.1643247 8.5448129,31.2018018 8.90229217,31.2018018 C9.54806116,31.2018018 10.0496778,31.0720734 10.407157,30.8126126 C10.7646363,30.5531519 10.9433732,30.2043265 10.9433732,29.7661261 C10.9433732,29.3740521 10.7963477,29.0569381 10.5022922,28.8147748 C10.2082366,28.5726114 9.84499703,28.3592802 9.41256244,28.1747748 C8.98012784,27.9902693 8.50733978,27.8057667 7.99418406,27.6212613 C7.48102834,27.4367558 7.00824027,27.2032447 6.57580568,26.9207207 C6.14337108,26.6381968 5.78013147,26.2836057 5.48607595,25.8569369 C5.19202043,25.4302681 5.04499487,24.8767602 5.04499487,24.1963964 C5.04499487,23.6774749 5.14589476,23.201804 5.34769757,22.7693694 C5.54950038,22.3369348 5.83202008,21.9650466 6.19526514,21.6536937 C6.5585102,21.3423408 6.99382116,21.100181 7.50121108,20.9272072 C8.00860101,20.7542334 8.5736404,20.6677477 9.19634622,20.6677477 C9.89977316,20.6677477 10.5916581,20.7311705 11.2720219,20.858018 C11.9523857,20.9848655 12.4943622,21.1578367 12.8979678,21.3769369 L12.8979678,24.8882883 L10.9952651,24.8882883 L10.9952651,22.9682883 C10.9606704,22.9682883 10.9260761,22.9625226 10.8914814,22.950991 C10.6377864,22.8818015 10.3639153,22.8270272 10.0698597,22.7866667 C9.77580421,22.7463061 9.48463595,22.7261261 9.19634622,22.7261261 C8.64282994,22.7261261 8.20751898,22.8356746 7.89040027,23.0547748 C7.57328157,23.273875 7.4147246,23.5679261 7.4147246,23.9369369 C7.4147246,24.3174794 7.56175015,24.6288276 7.85580568,24.870991 C8.1498612,25.1131544 8.51310081,25.3322513 8.94553541,25.5282883 C9.37797,25.7243253 9.85075807,25.9203594 10.3639138,26.1163964 C10.8770695,26.3124334 11.3498576,26.5517103 11.7822922,26.8342342 C12.2147268,27.1167582 12.5779664,27.4713492 12.8720219,27.898018 C13.1660774,28.3246868 13.313103,28.8608977 13.313103,29.5066667 C13.313103,30.1293725 13.1977888,30.6742319 12.967157,31.1412613 C12.7365252,31.6082906 12.4136456,32.0003588 11.9985084,32.3174775 C11.5833712,32.6345962 11.093286,32.8709902 10.5282381,33.0266667 C9.96319024,33.1823431 9.35202518,33.2601802 8.6947246,33.2601802 C8.25652421,33.2601802 7.85004179,33.2255859 7.47526514,33.1563964 C7.10048849,33.0872069 6.754546,33.0007212 6.4374273,32.8969369 C6.1203086,32.7931526 5.84067175,32.6836042 5.59850838,32.5682883 C5.35634501,32.4529724 5.16031093,32.3549554 5.01040027,32.2742342 L5.01040027,29.0569369 Z M14.8698597,28.6936937 C14.8698597,27.9672036 14.9794082,27.3214443 15.1985084,26.7563964 C15.4176086,26.1913485 15.7289568,25.7127948 16.1325624,25.3207207 C16.5361681,24.9286467 17.0176047,24.6317127 17.5768868,24.4299099 C18.1361688,24.2281071 18.7617482,24.1272072 19.4536435,24.1272072 C20.1801336,24.1272072 20.8287758,24.2367557 21.3995895,24.4558559 C21.9704031,24.6749561 22.4518398,24.9834214 22.8439138,25.3812613 C23.2359878,25.7791011 23.5329218,26.2605377 23.7347246,26.8255856 C23.9365274,27.3906335 24.0374273,28.0133299 24.0374273,28.6936937 C24.0374273,29.4201838 23.9278788,30.0659431 23.7087787,30.630991 C23.4896785,31.1960389 23.1783302,31.6745926 22.7747246,32.0666667 C22.371119,32.4587407 21.8896823,32.7556747 21.3304003,32.9574775 C20.7711182,33.1592803 20.1455389,33.2601802 19.4536435,33.2601802 C18.7271534,33.2601802 18.0785112,33.1506317 17.5076976,32.9315315 C16.9368839,32.7124313 16.4554473,32.403966 16.0633732,32.0061261 C15.6712992,31.6082863 15.3743652,31.1268497 15.1725624,30.5618018 C14.9707596,29.9967539 14.8698597,29.3740575 14.8698597,28.6936937 Z M17.1876976,28.6936937 C17.1876976,29.0742361 17.2395889,29.4259443 17.3433732,29.7488288 C17.4471575,30.0717133 17.597066,30.354233 17.793103,30.5963964 C17.98914,30.8385598 18.225534,31.0259453 18.5022922,31.1585586 C18.7790503,31.2911718 19.0961643,31.3574775 19.4536435,31.3574775 C20.1224757,31.3574775 20.6673351,31.1441463 21.0882381,30.7174775 C21.5091411,30.2908087 21.7195895,29.6162208 21.7195895,28.6936937 C21.7195895,27.898014 21.5235554,27.2551376 21.1314814,26.765045 C20.7394073,26.2749525 20.1801336,26.0299099 19.4536435,26.0299099 C19.130759,26.0299099 18.8309422,26.0789184 18.5541841,26.1769369 C18.2774259,26.2749554 18.038149,26.4335124 17.8363462,26.6526126 C17.6345434,26.8717128 17.4759864,27.1484668 17.3606705,27.4828829 C17.2453547,27.817299 17.1876976,28.2208985 17.1876976,28.6936937 Z M30.3509408,24.3693694 L33.5682381,24.3693694 L33.5682381,31.1153153 L34.8828327,31.1153153 L34.8828327,33.018018 L32.1498597,33.018018 L31.7520219,31.738018 L31.6828327,31.738018 C31.4176062,32.1762184 31.0197723,32.539458 30.4893192,32.8277477 C29.9588661,33.1160375 29.3707639,33.2601802 28.7249949,33.2601802 C28.2867945,33.2601802 27.8860778,33.2025231 27.5228327,33.0872072 C27.1595876,32.9718913 26.8511223,32.7816229 26.5974273,32.5163964 C26.3437323,32.2511698 26.1476983,31.8936959 26.0093192,31.443964 C25.8709401,30.994232 25.8017516,30.4291926 25.8017516,29.7488288 L25.8017516,26.2720721 L24.8158057,26.2720721 L24.8158057,24.3693694 L28.0504003,24.3693694 L28.0504003,29.2818018 C28.0504003,29.9852287 28.1628316,30.4926111 28.3876976,30.803964 C28.6125636,31.1153169 28.9671546,31.270991 29.4514814,31.270991 C29.8781502,31.270991 30.2615697,31.1441454 30.6017516,30.8904505 C30.9419335,30.6367555 31.1812104,30.3254073 31.3195895,29.9563964 L31.3195895,26.2720721 L30.3509408,26.2720721 L30.3509408,24.3693694 Z M35.2287787,24.3693694 L38.2558057,24.3693694 L38.5152651,25.510991 L38.5844543,25.510991 C38.8496809,25.1419801 39.2302176,24.8191005 39.7260759,24.5423423 C40.2219343,24.2655842 40.8158022,24.1272072 41.5076976,24.1272072 C41.9343664,24.1272072 42.3350831,24.1848643 42.7098597,24.3001802 C43.0846364,24.4154961 43.4046332,24.6057644 43.6698597,24.870991 C43.9350863,25.1362175 44.1455346,25.4965743 44.3012111,25.9520721 C44.4568875,26.4075698 44.5347246,26.9697264 44.5347246,27.6385586 L44.5347246,33.018018 L42.2860759,33.018018 L42.2860759,28.1055856 C42.2860759,27.4021586 42.127519,26.8947763 41.8104003,26.5834234 C41.4932816,26.2720705 41.0925649,26.1163964 40.6082381,26.1163964 C40.1815693,26.1163964 39.792384,26.2403591 39.4406705,26.4882883 C39.0889571,26.7362175 38.8496802,27.0446828 38.7228327,27.4136937 L38.7228327,33.018018 L36.4741841,33.018018 L36.4741841,26.2720721 L35.2287787,26.2720721 L35.2287787,24.3693694 Z M50.6925624,20.9099099 L54.3076976,20.9099099 L54.3076976,28.3823423 C54.3076976,29.2472115 54.3538232,30.1005363 54.4460759,30.9423423 C54.4460759,31.0000003 54.4518417,31.0576574 54.4633732,31.1153153 L55.5704003,31.1153153 L55.5704003,33.018018 L52.7855354,33.018018 L52.5606705,31.910991 L52.4914814,31.910991 C52.3761655,32.1185596 52.2204913,32.3030623 52.0244543,32.4645045 C51.8284173,32.6259468 51.6093204,32.7672066 51.367157,32.8882883 C51.1249937,33.00937 50.8597711,33.1016213 50.5714814,33.165045 C50.2831916,33.2284688 49.9949062,33.2601802 49.7066165,33.2601802 C49.1646318,33.2601802 48.6543666,33.1736946 48.1758057,33.0007207 C47.6972447,32.8277469 47.2792309,32.5596415 46.9217516,32.1963964 C46.5642724,31.8331513 46.2817527,31.3718947 46.0741841,30.8126126 C45.8666155,30.2533305 45.7628327,29.593157 45.7628327,28.8320721 C45.7628327,28.0940504 45.875264,27.4367596 46.10013,26.8601802 C46.324996,26.2836007 46.6363442,25.7963984 47.0341841,25.3985586 C47.4320239,25.0007187 47.9019291,24.6951362 48.4439138,24.4818018 C48.9858985,24.2684674 49.5797664,24.1618018 50.2255354,24.1618018 C50.5830147,24.1618018 50.9203086,24.1819818 51.2374273,24.2223423 C51.554546,24.2627029 51.8284171,24.3290085 52.0590489,24.4212613 L52.0590489,22.8126126 L50.6925624,22.8126126 L50.6925624,20.9099099 Z M50.2255354,31.3574775 C50.6637358,31.3574775 51.0529211,31.2508119 51.393103,31.0374775 C51.7332849,30.8241431 51.9552646,30.5156777 52.0590489,30.1120721 L52.0590489,26.445045 C51.8976067,26.3181976 51.6756269,26.2230634 51.393103,26.1596396 C51.110579,26.0962159 50.8136451,26.0645045 50.5022922,26.0645045 C50.1909393,26.0645045 49.8882396,26.1163959 49.5941841,26.2201802 C49.3001285,26.3239645 49.0406717,26.4882872 48.8158057,26.7131532 C48.5909397,26.9380191 48.4122027,27.2291874 48.2795895,27.5866667 C48.1469762,27.9441459 48.0806705,28.3823397 48.0806705,28.9012613 C48.0806705,29.639283 48.2651732,30.2331509 48.6341841,30.6828829 C49.0031949,31.1326149 49.5336401,31.3574775 50.2255354,31.3574775 Z M64.9974273,23.7293694 C64.9974273,24.0291907 64.9599502,24.3290075 64.8849949,24.6288288 C64.8100395,24.9286501 64.6860768,25.2025213 64.513103,25.4504505 C64.3401291,25.6983796 64.1152665,25.9174765 63.8385084,26.1077477 C63.5617502,26.298019 63.2273392,26.4392788 62.8352651,26.5315315 L62.8352651,26.6353153 C63.1812128,26.6929733 63.5098582,26.7909903 63.8212111,26.9293694 C64.132564,27.0677484 64.4035523,27.2580168 64.6341841,27.5001802 C64.8648158,27.7423436 65.0464356,28.0363947 65.1790489,28.3823423 C65.3116622,28.72829 65.3779678,29.1376553 65.3779678,29.6104505 C65.3779678,30.2331563 65.2453566,30.77225 64.98013,31.2277477 C64.7149035,31.6832455 64.3603124,32.0551337 63.9163462,32.3434234 C63.47238,32.6317132 62.9678806,32.8450444 62.4028327,32.9834234 C61.8377848,33.1218025 61.2554483,33.190991 60.6558057,33.190991 L59.9033732,33.190991 C59.5977861,33.190991 59.2691408,33.1823424 58.9174273,33.165045 C58.5657138,33.1477477 58.2082399,33.121802 57.8449949,33.0872072 C57.4817498,33.0526124 57.1502216,33.0007211 56.8504003,32.9315315 L56.8504003,20.9963964 C57.0695005,20.9618016 57.3203088,20.9272074 57.6028327,20.8926126 C57.8853566,20.8580178 58.1880563,20.8291893 58.5109408,20.8061261 C58.8338253,20.7830629 59.1653535,20.7657658 59.5055354,20.7542342 C59.8457173,20.7427026 60.1830112,20.7369369 60.5174273,20.7369369 C61.0824752,20.7369369 61.6331003,20.7801797 62.1693192,20.8666667 C62.7055381,20.9531536 63.1840919,21.1059449 63.6049949,21.325045 C64.0258979,21.5441452 64.3631918,21.8497278 64.6168868,22.2418018 C64.8705817,22.6338758 64.9974273,23.1297267 64.9974273,23.7293694 Z M60.673103,31.2363964 C60.9613927,31.2363964 61.2410295,31.2018021 61.5120219,31.1326126 C61.7830142,31.0634231 62.0222911,30.9567575 62.2298597,30.8126126 C62.4374283,30.6684677 62.6046339,30.4868479 62.7314814,30.2677477 C62.8583288,30.0486476 62.9217516,29.7891907 62.9217516,29.4893694 C62.9217516,29.1088269 62.8467974,28.8090101 62.6968868,28.5899099 C62.5469761,28.3708097 62.350942,28.2007213 62.1087787,28.0796396 C61.8666153,27.958558 61.595627,27.8807209 61.2958057,27.8461261 C60.9959844,27.8115314 60.6961675,27.7942342 60.3963462,27.7942342 L59.1336435,27.7942342 L59.1336435,31.1326126 C59.1913015,31.1556758 59.2835528,31.1729729 59.4104003,31.1845045 C59.5372478,31.1960361 59.6727419,31.2046847 59.8168868,31.2104505 C59.9610316,31.2162162 60.11094,31.221982 60.2666165,31.2277477 C60.4222929,31.2335135 60.5577871,31.2363964 60.673103,31.2363964 Z M59.8947246,25.9953153 C60.0561668,25.9953153 60.2435524,25.9895496 60.4568868,25.978018 C60.6702212,25.9664864 60.8460753,25.9491893 60.9844543,25.9261261 C61.4226547,25.7877471 61.8003086,25.5801816 62.1174273,25.3034234 C62.434546,25.0266653 62.593103,24.6634257 62.593103,24.2136937 C62.593103,23.9138724 62.5354459,23.6659469 62.42013,23.4699099 C62.3048141,23.2738729 62.1520228,23.1181988 61.9617516,23.0028829 C61.7714804,22.887567 61.5552663,22.8068471 61.313103,22.7607207 C61.0709396,22.7145944 60.8172484,22.6915315 60.5520219,22.6915315 C60.2522006,22.6915315 59.9754466,22.6972972 59.7217516,22.7088288 C59.4680567,22.7203604 59.2720226,22.7376575 59.1336435,22.7607207 L59.1336435,25.9953153 L59.8947246,25.9953153 Z M71.8644543,24.3693694 L75.0817516,24.3693694 L75.0817516,31.1153153 L76.3963462,31.1153153 L76.3963462,33.018018 L73.6633732,33.018018 L73.2655354,31.738018 L73.1963462,31.738018 C72.9311197,32.1762184 72.5332858,32.539458 72.0028327,32.8277477 C71.4723796,33.1160375 70.8842774,33.2601802 70.2385084,33.2601802 C69.800308,33.2601802 69.3995913,33.2025231 69.0363462,33.0872072 C68.6731012,32.9718913 68.3646358,32.7816229 68.1109408,32.5163964 C67.8572459,32.2511698 67.6612118,31.8936959 67.5228327,31.443964 C67.3844536,30.994232 67.3152651,30.4291926 67.3152651,29.7488288 L67.3152651,26.2720721 L66.3293192,26.2720721 L66.3293192,24.3693694 L69.5639138,24.3693694 L69.5639138,29.2818018 C69.5639138,29.9852287 69.6763451,30.4926111 69.9012111,30.803964 C70.1260771,31.1153169 70.4806681,31.270991 70.9649949,31.270991 C71.3916637,31.270991 71.7750833,31.1441454 72.1152651,30.8904505 C72.455447,30.6367555 72.6947239,30.3254073 72.833103,29.9563964 L72.833103,26.2720721 L71.8644543,26.2720721 L71.8644543,24.3693694 Z M81.8276976,20.9099099 L85.4428327,20.9099099 L85.4428327,28.3823423 C85.4428327,29.2472115 85.4889584,30.1005363 85.5812111,30.9423423 C85.5812111,31.0000003 85.5869768,31.0576574 85.5985084,31.1153153 L86.7055354,31.1153153 L86.7055354,33.018018 L83.9206705,33.018018 L83.6958057,31.910991 L83.6266165,31.910991 C83.5113006,32.1185596 83.3556265,32.3030623 83.1595895,32.4645045 C82.9635524,32.6259468 82.7444555,32.7672066 82.5022922,32.8882883 C82.2601288,33.00937 81.9949062,33.1016213 81.7066165,33.165045 C81.4183268,33.2284688 81.1300414,33.2601802 80.8417516,33.2601802 C80.2997669,33.2601802 79.7895018,33.1736946 79.3109408,33.0007207 C78.8323799,32.8277469 78.414366,32.5596415 78.0568868,32.1963964 C77.6994075,31.8331513 77.4168878,31.3718947 77.2093192,30.8126126 C77.0017506,30.2533305 76.8979678,29.593157 76.8979678,28.8320721 C76.8979678,28.0940504 77.0103991,27.4367596 77.2352651,26.8601802 C77.4601311,26.2836007 77.7714794,25.7963984 78.1693192,25.3985586 C78.567159,25.0007187 79.0370642,24.6951362 79.5790489,24.4818018 C80.1210336,24.2684674 80.7149015,24.1618018 81.3606705,24.1618018 C81.7181498,24.1618018 82.0554437,24.1819818 82.3725624,24.2223423 C82.6896811,24.2627029 82.9635523,24.3290085 83.1941841,24.4212613 L83.1941841,22.8126126 L81.8276976,22.8126126 L81.8276976,20.9099099 Z M81.3606705,31.3574775 C81.7988709,31.3574775 82.1880562,31.2508119 82.5282381,31.0374775 C82.86842,30.8241431 83.0903998,30.5156777 83.1941841,30.1120721 L83.1941841,26.445045 C83.0327418,26.3181976 82.810762,26.2230634 82.5282381,26.1596396 C82.2457142,26.0962159 81.9487802,26.0645045 81.6374273,26.0645045 C81.3260744,26.0645045 81.0233747,26.1163959 80.7293192,26.2201802 C80.4352637,26.3239645 80.1758068,26.4882872 79.9509408,26.7131532 C79.7260748,26.9380191 79.5473379,27.2291874 79.4147246,27.5866667 C79.2821113,27.9441459 79.2158057,28.3823397 79.2158057,28.9012613 C79.2158057,29.639283 79.4003083,30.2331509 79.7693192,30.6828829 C80.13833,31.1326149 80.6687752,31.3574775 81.3606705,31.3574775 Z M92.2060759,20.9099099 L95.8212111,20.9099099 L95.8212111,28.3823423 C95.8212111,29.2472115 95.8673367,30.1005363 95.9595895,30.9423423 C95.9595895,31.0000003 95.9653552,31.0576574 95.9768868,31.1153153 L97.0839138,31.1153153 L97.0839138,33.018018 L94.2990489,33.018018 L94.0741841,31.910991 L94.0049949,31.910991 C93.889679,32.1185596 93.7340049,32.3030623 93.5379678,32.4645045 C93.3419308,32.6259468 93.1228339,32.7672066 92.8806705,32.8882883 C92.6385072,33.00937 92.3732846,33.1016213 92.0849949,33.165045 C91.7967051,33.2284688 91.5084197,33.2601802 91.22013,33.2601802 C90.6781453,33.2601802 90.1678801,33.1736946 89.6893192,33.0007207 C89.2107582,32.8277469 88.7927444,32.5596415 88.4352651,32.1963964 C88.0777859,31.8331513 87.7952662,31.3718947 87.5876976,30.8126126 C87.380129,30.2533305 87.2763462,29.593157 87.2763462,28.8320721 C87.2763462,28.0940504 87.3887775,27.4367596 87.6136435,26.8601802 C87.8385095,26.2836007 88.1498577,25.7963984 88.5476976,25.3985586 C88.9455374,25.0007187 89.4154426,24.6951362 89.9574273,24.4818018 C90.499412,24.2684674 91.0932799,24.1618018 91.7390489,24.1618018 C92.0965282,24.1618018 92.4338221,24.1819818 92.7509408,24.2223423 C93.0680595,24.2627029 93.3419307,24.3290085 93.5725624,24.4212613 L93.5725624,22.8126126 L92.2060759,22.8126126 L92.2060759,20.9099099 Z M91.7390489,31.3574775 C92.1772493,31.3574775 92.5664346,31.2508119 92.9066165,31.0374775 C93.2467984,30.8241431 93.4687781,30.5156777 93.5725624,30.1120721 L93.5725624,26.445045 C93.4111202,26.3181976 93.1891404,26.2230634 92.9066165,26.1596396 C92.6240926,26.0962159 92.3271586,26.0645045 92.0158057,26.0645045 C91.7044528,26.0645045 91.4017531,26.1163959 91.1076976,26.2201802 C90.813642,26.3239645 90.5541852,26.4882872 90.3293192,26.7131532 C90.1044532,26.9380191 89.9257163,27.2291874 89.793103,27.5866667 C89.6604897,27.9441459 89.5941841,28.3823397 89.5941841,28.9012613 C89.5941841,29.639283 89.7786867,30.2331509 90.1476976,30.6828829 C90.5167084,31.1326149 91.0471536,31.3574775 91.7390489,31.3574775 Z M102.497968,30.5790991 L103.155265,30.5790991 L104.833103,24.3693694 L107.150941,24.3693694 L104.694725,32.1704505 C104.475624,32.8162194 104.262293,33.4072045 104.054725,33.9434234 C103.847156,34.4796423 103.604996,34.9437818 103.328238,35.3358559 C103.05148,35.7279299 102.725717,36.0306296 102.350941,36.243964 C101.976164,36.4572984 101.51779,36.563964 100.975806,36.563964 C100.710579,36.563964 100.459771,36.5293697 100.223373,36.4601802 C99.9869757,36.3909906 99.7707616,36.3073879 99.5747246,36.2093694 C99.3786876,36.1113509 99.2057163,36.0075681 99.0558057,35.898018 C98.905895,35.7884679 98.7848151,35.687568 98.6925624,35.5953153 L99.8514814,34.0558559 C100.001392,34.1827033 100.180129,34.3009004 100.387698,34.4104505 C100.595266,34.5200005 100.7913,34.5747748 100.975806,34.5747748 C101.321753,34.5747748 101.595624,34.4536949 101.797427,34.2115315 C101.99923,33.9693682 102.192381,33.5715343 102.376887,33.018018 L101.148779,33.018018 L97.5509408,24.3693694 L99.9898597,24.3693694 L102.497968,30.5790991 Z" id="SoundBuddy" fill="#FFFFFF"></path>
                <path d="M105.620253,25.2252252 C105.620253,25.2252252 118.340641,18.0560508 113.917722,13.3333333 C103.455696,2.16216216 10.0189873,53.3333333 2.08227848,36.3963964 C-5.85443038,19.4594595 51.8670886,14.0540541 51.8670886,14.0540541" id="Path-2" stroke="#FF7F00" stroke-width="2"></path>
                <path d="M5.01164557,29.1920721 L6.9164557,29.1920721 L6.9164557,30.9045045 L7.02035443,30.9390991 C7.28587475,31.054415 7.5773655,31.1495492 7.89483544,31.2245045 C8.21230538,31.2994598 8.54997289,31.3369369 8.9078481,31.3369369 C9.55433235,31.3369369 10.0565045,31.2072085 10.4143797,30.9477477 C10.772255,30.688287 10.9511899,30.3394617 10.9511899,29.9012613 C10.9511899,29.5091872 10.8040015,29.1920733 10.5096203,28.9499099 C10.215239,28.7077465 9.8515971,28.4944153 9.41868354,28.3099099 C8.98576999,28.1254045 8.51245826,27.9409018 7.99873418,27.7563964 C7.48501009,27.571891 7.01169837,27.3383798 6.57878481,27.0558559 C6.14587125,26.7733319 5.78222932,26.4187409 5.4878481,25.9920721 C5.19346688,25.5654033 5.04627848,25.0118953 5.04627848,24.3315315 C5.04627848,23.81261 5.14729013,23.3369391 5.34931646,22.9045045 C5.55134278,22.4720699 5.8341754,22.1001817 6.19782278,21.7888288 C6.56147017,21.4774759 6.99726328,21.2353162 7.50521519,21.0623423 C8.0131671,20.8893685 8.21230538,22.9708097 7.89483544,23.1899099 C7.5773655,23.4090101 7.41863291,23.7030612 7.41863291,24.0720721 C7.41863291,24.4526145 7.56582131,24.7639628 7.86020253,25.0061261 C8.15458375,25.2482895 8.51822568,25.4673864 8.95113924,25.6634234 C9.3840528,25.8594604 9.85736452,26.0554945 10.3710886,26.2515315 C10.8848127,26.4475685 11.3581244,26.6868454 11.791038,26.9693694 C12.2239515,27.2518933 12.5875935,27.6064844 12.8819747,28.0331532 C13.1763559,28.459822 13.3235443,28.9960328 13.3235443,29.6418018 C13.3235443,30.2645076 13.2081024,30.809367 12.9772152,31.2763964 C12.746328,31.7434258 12.4230907,32.1354939 12.0074937,32.4526126 C11.5918967,32.7697313 11.1012687,33.0061253 10.5355949,33.1618018 C9.96992122,33.3174783 9.35807924,33.3953153 8.70005063,33.3953153 C8.2613649,33.3953153 7.85443226,33.3607211 7.47924051,33.2915315 C7.10404876,33.222342 6.75772311,33.1358564 6.44025316,33.0320721 C6.12278322,32.9282878 5.84283666,32.8187393 5.60040506,32.7034234 C5.35797347,32.5881075 5.16172227,32.4900905 5.01164557,32.4093694 L5.01164557,29.1920721 Z M14.8820253,28.8288288 C14.8820253,28.1023387 14.9916951,27.4565794 15.211038,26.8915315 C15.4303808,26.3264837 15.7420739,25.8479299 16.1461266,25.4558559 C16.5501792,25.0637818 17.0321491,24.7668479 17.5920506,24.565045 C18.1519522,24.3632422 18.7782244,24.2623423 19.4708861,24.2623423 C20.1981809,24.2623423 20.8475414,24.3718908 21.4189873,24.590991 C21.9904332,24.8100912 22.4724031,25.1185566 22.8649114,25.5163964 C23.2574197,25.9142362 23.5546825,26.3956729 23.7567089,26.9607207 C23.9587352,27.5257686 24.0597468,28.1484651 24.0597468,28.8288288 C24.0597468,29.5553189 23.950077,30.2010783 23.7307342,30.7661261 C23.5113913,31.331174 23.1996982,31.8097278 22.7956456,32.2018018 C22.3915929,32.5938758 21.9096231,32.8908098 21.3497215,33.0926126 C20.78982,33.2944154 20.1635478,33.3953153 19.4708861,33.3953153 C18.7435913,33.3953153 18.0942307,33.2857669 17.5227848,33.0666667 C16.9513389,32.8475665 16.4693691,32.5391011 16.0768608,32.1412613 C15.6843525,31.7434214 15.3870896,31.2619848 15.1850633,30.6969369 C14.983037,30.1318891 14.8820253,29.5091926 14.8820253,28.8288288 Z M17.2024304,28.8288288 C17.2024304,29.2093713 17.2543792,29.5610795 17.3582785,29.883964 C17.4621777,30.2068485 17.6122522,30.4893682 17.8085063,30.7315315 C18.0047605,30.9736949 18.2414163,31.1610804 18.518481,31.2936937 C18.7955457,31.426307 19.1130109,31.4926126 19.4708861,31.4926126 C20.140459,31.4926126 20.6859219,31.2792814 21.1072911,30.8526126 C21.5286603,30.4259438 21.7393418,29.751356 21.7393418,28.8288288 C21.7393418,28.0331492 21.5430906,27.3902727 21.1505823,26.9001802 C20.758074,26.4100876 20.1981809,26.165045 19.4708861,26.165045 C19.147644,26.165045 18.8474951,26.2140536 18.5704304,26.3120721 C18.2933657,26.4100906 18.0538238,26.5686476 17.8517975,26.7877477 C17.6497711,27.0068479 17.4910386,27.2836019 17.3755949,27.618018 C17.2601513,27.9524341 17.2024304,28.3560337 17.2024304,28.8288288 Z M30.3802532,24.5045045 L33.6011139,24.5045045 L33.6011139,31.2504505 L34.9171646,31.2504505 L34.9171646,33.1531532 L32.1811646,33.1531532 L31.7828861,31.8731532 L31.7136203,31.8731532 C31.4480999,32.3113535 31.0498254,32.6745932 30.5187848,32.9628829 C29.9877442,33.2511726 29.3989906,33.3953153 28.7525063,33.3953153 C28.3138206,33.3953153 27.91266,33.3376582 27.5490127,33.2223423 C27.1853653,33.1070265 26.8765582,32.9167581 26.6225823,32.6515315 C26.3686063,32.386305 26.1723551,32.0288311 26.0338228,31.5790991 C25.8952904,31.1293671 25.8260253,30.5643277 25.8260253,29.883964 L25.8260253,26.4072072 L24.8389873,26.4072072 L24.8389873,24.5045045 L28.0771646,24.5045045 L28.0771646,29.4169369 C28.0771646,30.1203639 28.1897204,30.6277462 28.4148354,30.9390991 C28.6399505,31.250452 28.9949343,31.4061261 29.4797975,31.4061261 C29.9069388,31.4061261 30.2907831,31.2792805 30.6313418,31.0255856 C30.9719004,30.7718906 31.2114423,30.4605424 31.3499747,30.0915315 L31.3499747,26.4072072 L30.3802532,26.4072072 L30.3802532,24.5045045 Z M35.2634937,24.5045045 L38.2938734,24.5045045 L38.5536203,25.6461261 L38.6228861,25.6461261 C38.8884064,25.2771153 39.2693646,24.9542356 39.7657722,24.6774775 C40.2621797,24.4007193 40.8567054,24.2623423 41.5493671,24.2623423 C41.9765085,24.2623423 42.377669,24.3199994 42.7528608,24.4353153 C43.1280525,24.5506312 43.4484037,24.7408996 43.7139241,25.0061261 C43.9794444,25.2713527 44.1901258,25.6317094 44.3459747,26.0872072 C44.5018236,26.542705 44.5797468,27.1048615 44.5797468,27.7736937 L44.5797468,33.1531532 L42.3286076,33.1531532 L42.3286076,28.2407207 C42.3286076,27.5372938 42.169875,27.0299115 41.8524051,26.7185586 C41.5349351,26.4072057 41.1337746,26.2515315 40.6489114,26.2515315 C40.22177,26.2515315 39.8321537,26.3754943 39.4800506,26.6234234 C39.1279476,26.8713526 38.8884057,27.179818 38.7614177,27.5488288 L38.7614177,33.1531532 L36.5102785,33.1531532 L36.5102785,26.4072072 L35.2634937,26.4072072 L35.2634937,24.5045045 Z M50.7444051,21.045045 L54.3635443,21.045045 L54.3635443,28.5174775 C54.3635443,29.3823467 54.4097211,30.2356715 54.5020759,31.0774775 C54.5020759,31.1351354 54.507848,31.1927925 54.5193924,31.2504505 L55.6276456,31.2504505 L55.6276456,33.1531532 L52.8396962,33.1531532 L52.6145823,32.0461261 L52.5453165,32.0461261 C52.4298728,32.2536947 52.2740263,32.4381974 52.0777722,32.5996396 C51.881518,32.7610819 51.6621784,32.9023417 51.4197468,33.0234234 C51.1773152,33.1445051 50.9117989,33.2367564 50.6231899,33.3001802 C50.3345808,33.3636039 50.0459761,33.3953153 49.7573671,33.3953153 C49.2147821,33.3953153 48.7039518,33.3088297 48.2248608,33.1358559 C47.7457698,32.962882 47.3272929,32.6947766 46.9694177,32.3315315 C46.6115425,31.9682865 46.3287099,31.5070298 46.1209114,30.9477477 C45.9131129,30.3884657 45.8092152,29.7282921 45.8092152,28.9672072 C45.8092152,28.2291855 45.921771,27.5718948 46.1468861,26.9953153 C46.3720011,26.4187359 46.6836942,25.9315335 47.0819747,25.5336937 C47.4802552,25.1358539 47.9506808,24.8302713 48.4932658,24.6169369 C49.0358508,24.4036025 49.6303765,24.2969369 50.2768608,24.2969369 C50.634736,24.2969369 50.9724035,24.3171169 51.2898734,24.3574775 C51.6073434,24.397838 51.8815178,24.4641437 52.1124051,24.5563964 L52.1124051,22.9477477 L50.7444051,22.9477477 L50.7444051,21.045045 Z M50.2768608,31.4926126 C50.7155465,31.4926126 51.1051629,31.385947 51.4457215,31.1726126 C51.7862802,30.9592782 52.0085058,30.6508128 52.1124051,30.2472072 L52.1124051,26.5801802 C51.950784,26.4533327 51.7285584,26.3581985 51.4457215,26.2947748 C51.1628847,26.231351 50.8656218,26.1996396 50.5539241,26.1996396 C50.2422263,26.1996396 49.9391913,26.251531 49.6448101,26.3553153 C49.3504289,26.4590996 49.0906847,26.6234223 48.8655696,26.8482883 C48.6404546,27.0731543 48.4615197,27.3643225 48.3287595,27.7218018 C48.1959993,28.0792811 48.1296203,28.5174749 48.1296203,29.0363964 C48.1296203,29.7744181 48.3143273,30.368286 48.6837468,30.818018 C49.0531664,31.26775 49.5841991,31.4926126 50.2768608,31.4926126 Z M71.9397468,24.5045045 L75.1606076,24.5045045 L75.1606076,31.2504505 L76.4766582,31.2504505 L76.4766582,33.1531532 L73.7406582,33.1531532 L73.3423797,31.8731532 L73.2731139,31.8731532 C73.0075936,32.3113535 72.6093191,32.6745932 72.0782785,32.9628829 C71.5472379,33.2511726 70.9584842,33.3953153 70.312,33.3953153 C69.8733143,33.3953153 69.4721537,33.3376582 69.1085063,33.2223423 C68.7448589,33.1070265 68.4360519,32.9167581 68.1820759,32.6515315 C67.9281,32.386305 67.7318488,32.0288311 67.5933165,31.5790991 C67.4547841,31.1293671 67.385519,30.5643277 67.385519,29.883964 L67.385519,26.4072072 L66.398481,26.4072072 L66.398481,24.5045045 L69.6366582,24.5045045 L69.6366582,29.4169369 C69.6366582,30.1203639 69.7492141,30.6277462 69.9743291,30.9390991 C70.1994442,31.250452 70.554428,31.4061261 71.0392911,31.4061261 C71.4664325,31.4061261 71.8502768,31.2792805 72.1908354,31.0255856 C72.5313941,30.7718906 72.770936,30.4605424 72.9094684,30.0915315 L72.9094684,26.4072072 L71.9397468,26.4072072 L71.9397468,24.5045045 Z M81.9140253,21.045045 L85.5331646,21.045045 L85.5331646,28.5174775 C85.5331646,29.3823467 85.5793413,30.2356715 85.6716962,31.0774775 C85.6716962,31.1351354 85.6774683,31.1927925 85.6890127,31.2504505 L86.7972658,31.2504505 L86.7972658,33.1531532 L84.0093165,33.1531532 L83.7842025,32.0461261 L83.7149367,32.0461261 C83.5994931,32.2536947 83.4436466,32.4381974 83.2473924,32.5996396 C83.0511383,32.7610819 82.8317987,32.9023417 82.5893671,33.0234234 C82.3469355,33.1445051 82.0814192,33.2367564 81.7928101,33.3001802 C81.5042011,33.3636039 81.2155964,33.3953153 80.9269873,33.3953153 C80.3844024,33.3953153 79.873572,33.3088297 79.394481,33.1358559 C78.91539,32.962882 78.4969132,32.6947766 78.139038,32.3315315 C77.7811628,31.9682865 77.4983302,31.5070298 77.2905316,30.9477477 C77.0827331,30.3884657 76.9788354,29.7282921 76.9788354,28.9672072 C76.9788354,28.2291855 77.0913913,27.5718948 77.3165063,26.9953153 C77.5416214,26.4187359 77.8533145,25.9315335 78.2515949,25.5336937 C78.6498754,25.1358539 79.1203011,24.8302713 79.6628861,24.6169369 C80.2054711,24.4036025 80.7999968,24.2969369 81.446481,24.2969369 C81.8043562,24.2969369 82.1420237,24.3171169 82.4594937,24.3574775 C82.7769636,24.397838 83.0511381,24.4641437 83.2820253,24.5563964 L83.2820253,22.9477477 L81.9140253,22.9477477 L81.9140253,21.045045 Z M81.446481,31.4926126 C81.8851668,31.4926126 82.2747831,31.385947 82.6153418,31.1726126 C82.9559004,30.9592782 83.1781261,30.6508128 83.2820253,30.2472072 L83.2820253,26.5801802 C83.1204043,26.4533327 82.8981786,26.3581985 82.6153418,26.2947748 C82.3325049,26.231351 82.0352421,26.1996396 81.7235443,26.1996396 C81.4118465,26.1996396 81.1088116,26.251531 80.8144304,26.3553153 C80.5200492,26.4590996 80.2603049,26.6234223 80.0351899,26.8482883 C79.8100748,27.0731543 79.6311399,27.3643225 79.4983797,27.7218018 C79.3656196,28.0792811 79.2992405,28.5174749 79.2992405,29.0363964 C79.2992405,29.7744181 79.4839475,30.368286 79.8533671,30.818018 C80.2227867,31.26775 80.7538193,31.4926126 81.446481,31.4926126 Z M92.3038987,21.045045 L95.923038,21.045045 L95.923038,28.5174775 C95.923038,29.3823467 95.9692147,30.2356715 96.0615696,31.0774775 C96.0615696,31.1351354 96.0673417,31.1927925 96.0788861,31.2504505 L97.1871392,31.2504505 L97.1871392,33.1531532 L94.3991899,33.1531532 L94.1740759,32.0461261 L94.1048101,32.0461261 C93.9893665,32.2536947 93.83352,32.4381974 93.6372658,32.5996396 C93.4410117,32.7610819 93.2216721,32.9023417 92.9792405,33.0234234 C92.7368089,33.1445051 92.4712926,33.2367564 92.1826835,33.3001802 C91.8940745,33.3636039 91.6054698,33.3953153 91.3168608,33.3953153 C90.7742758,33.3953153 90.2634454,33.3088297 89.7843544,33.1358559 C89.3052634,32.962882 88.8867866,32.6947766 88.5289114,32.3315315 C88.1710362,31.9682865 87.8882036,31.5070298 87.6804051,30.9477477 C87.4726066,30.3884657 87.3687089,29.7282921 87.3687089,28.9672072 C87.3687089,28.2291855 87.4812647,27.5718948 87.7063797,26.9953153 C87.9314948,26.4187359 88.2431879,25.9315335 88.6414684,25.5336937 C89.0397488,25.1358539 89.5101745,24.8302713 90.0527595,24.6169369 C90.5953445,24.4036025 91.1898702,24.2969369 91.8363544,24.2969369 C92.1942296,24.2969369 92.5318971,24.3171169 92.8493671,24.3574775 C93.166837,24.397838 93.4410115,24.4641437 93.6718987,24.5563964 L93.6718987,22.9477477 L92.3038987,22.9477477 L92.3038987,21.045045 Z M91.8363544,31.4926126 C92.2750402,31.4926126 92.6646565,31.385947 93.0052152,31.1726126 C93.3457739,30.9592782 93.5679995,30.6508128 93.6718987,30.2472072 L93.6718987,26.5801802 C93.5102777,26.4533327 93.288052,26.3581985 93.0052152,26.2947748 C92.7223783,26.231351 92.4251155,26.1996396 92.1134177,26.1996396 C91.80172,26.1996396 91.498685,26.251531 91.2043038,26.3553153 C90.9099226,26.4590996 90.6501783,26.6234223 90.4250633,26.8482883 C90.1999482,27.0731543 90.0210133,27.3643225 89.8882532,27.7218018 C89.755493,28.0792811 89.6891139,28.5174749 89.6891139,29.0363964 C89.6891139,29.7744181 89.8738209,30.368286 90.2432405,30.818018 C90.6126601,31.26775 91.1436927,31.4926126 91.8363544,31.4926126 Z M102.60719,30.7142342 L103.265215,30.7142342 L104.944911,24.5045045 L107.265316,24.5045045 L104.80638,32.3055856 C104.587037,32.9513546 104.373469,33.5423397 104.165671,34.0785586 C103.957872,34.6147775 103.715444,35.078917 103.43838,35.470991 C103.161315,35.863065 102.835192,36.1657647 102.46,36.3790991 C102.084808,36.5924335 101.625927,36.6990991 101.083342,36.6990991 C100.817821,36.6990991 100.566735,36.6645049 100.330076,36.5953153 C100.093417,36.5261258 99.876963,36.442523 99.6807089,36.3445045 C99.4844547,36.246486 99.3112919,36.1427033 99.1612152,36.0331532 C99.0111385,35.9236031 98.8899245,35.8227032 98.7975696,35.7304505 L99.9577722,34.190991 C100.107849,34.3178385 100.286784,34.4360355 100.494582,34.5455856 C100.702381,34.6551357 100.898632,34.7099099 101.083342,34.7099099 C101.429673,34.7099099 101.703847,34.58883 101.905873,34.3466667 C102.1079,34.1045033 102.301265,33.7066694 102.485975,33.1531532 L101.256506,33.1531532 L97.6546835,24.5045045 L100.096304,24.5045045 L102.60719,30.7142342 Z" id="SoundBuddy" fill="#FFFFFF"></path>
                <path d="M54.8181115,1.88011575 C50.8758705,1.88011575 47.6792444,5.07320514 47.6792444,9.01108461 L47.6792444,14.5573937 C47.6792444,15.8726613 48.7421424,16.9343834 50.0588668,16.9343834 L52.4384892,16.9343834 L52.4384892,10.5957444 L49.2656593,10.5957444 L49.2656593,9.01108461 C49.2656593,5.944768 51.7483987,3.4647755 54.8181115,3.4647755 C57.8878244,3.4647755 60.3705637,5.944768 60.3705637,9.01108461 L60.3705637,10.5957444 L57.1977339,10.5957444 L57.1977339,16.9343834 L59.5773563,16.9343834 C60.8940806,16.9343834 61.9569786,15.8726613 61.9569786,14.5573937 L61.9569786,9.01108461 C61.9569786,5.07320514 58.7603526,1.88011575 54.8181115,1.88011575 Z" id="Shape" fill="#FF7F00" fill-rule="nonzero" transform="translate(54.818112, 9.407250) rotate(-15.000000) translate(-54.818112, -9.407250) "></path>
            </g>
        </g>
    </g>
</svg>